<svg xmlns="http://www.w3.org/2000/svg" width="116" height="116" viewBox="0 0 116 116"><g transform="translate(-778 -386)"><circle cx="58" cy="58" r="58" transform="translate(778 386)" fill="#1d8cf8"/><path d="M32.415,18.942,22.4,2.251A4.635,4.635,0,0,0,18.425,0H2.323a2.318,2.318,0,0,0-1.9,3.648L16.543,26.676a29.982,29.982,0,0,1,15.872-7.735ZM71.851,0h-16.1a4.635,4.635,0,0,0-3.975,2.251L41.759,18.942a29.99,29.99,0,0,1,15.872,7.733L73.75,3.648A2.318,2.318,0,0,0,71.851,0ZM37.087,23.179a25.5,25.5,0,1,0,25.5,25.5A25.5,25.5,0,0,0,37.087,23.179Zm13.4,22.782L45,51.315l1.3,7.565a1.664,1.664,0,0,1-2.412,1.751l-6.8-3.571-6.794,3.571A1.663,1.663,0,0,1,27.88,58.88l1.3-7.565-5.495-5.354a1.664,1.664,0,0,1,.92-2.838l7.6-1.107,3.394-6.884a1.667,1.667,0,0,1,2.986,0l3.394,6.884,7.6,1.107A1.664,1.664,0,0,1,50.49,45.961Z" transform="translate(798.913 406.914)" fill="#fff"/></g></svg>