<svg xmlns="http://www.w3.org/2000/svg" width="116" height="116" viewBox="0 0 116 116"><g transform="translate(-589 -386)"><circle cx="58" cy="58" r="58" transform="translate(589 386)" fill="#1d8cf8"/><path d="M44.36,64H6.307A6.307,6.307,0,0,0,0,70.307V108.36a6.307,6.307,0,0,0,6.307,6.307H44.36a6.307,6.307,0,0,0,6.307-6.307V70.307A6.307,6.307,0,0,0,44.36,64Zm24.99,4.974L54.889,78.949V99.717l14.461,9.962a4.231,4.231,0,0,0,6.65-3.4v-33.9A4.233,4.233,0,0,0,69.35,68.974Z" transform="translate(609 354.667)" fill="#fff"/></g></svg>